<svg width="398" height="823" viewBox="0 0 398 823" fill="none" xmlns="http://www.w3.org/2000/svg">
<g filter="url(#filter0_d_115_459)">
<path d="M165.349 453.715C162.435 453.715 159.926 453.121 157.823 451.933C155.733 450.733 154.122 449.037 152.99 446.847C151.859 444.644 151.293 442.039 151.293 439.032C151.293 436.099 151.859 433.525 152.99 431.31C154.122 429.095 155.714 427.369 157.768 426.131C159.834 424.894 162.256 424.275 165.036 424.275C166.905 424.275 168.645 424.578 170.256 425.184C171.879 425.778 173.293 426.676 174.498 427.876C175.716 429.076 176.663 430.586 177.339 432.405C178.016 434.212 178.354 436.328 178.354 438.754V440.925H159.059V436.025H170.957C170.957 434.886 170.711 433.878 170.219 432.999C169.727 432.121 169.045 431.434 168.171 430.939C167.311 430.431 166.308 430.178 165.165 430.178C163.972 430.178 162.914 430.456 161.992 431.013C161.082 431.558 160.369 432.294 159.852 433.222C159.336 434.138 159.071 435.159 159.059 436.285V440.944C159.059 442.355 159.317 443.574 159.834 444.601C160.363 445.628 161.107 446.42 162.066 446.977C163.025 447.534 164.163 447.812 165.478 447.812C166.351 447.812 167.151 447.688 167.876 447.441C168.602 447.193 169.223 446.822 169.739 446.327C170.256 445.832 170.649 445.226 170.92 444.508L178.188 444.991C177.819 446.748 177.062 448.282 175.919 449.594C174.787 450.894 173.324 451.908 171.529 452.638C169.746 453.356 167.686 453.715 165.349 453.715Z" fill="#061D25"/>
<path d="M179.917 453.158L179.403 428.057C179.361 425.981 181.032 424.275 183.109 424.275V424.275C185.156 424.275 186.815 425.934 186.815 427.981V429.677H187.147C187.738 428.006 188.721 426.688 190.099 425.723C191.476 424.758 193.124 424.275 195.042 424.275C196.985 424.275 198.639 424.764 200.004 425.741C201.369 426.707 202.279 428.018 202.734 429.677H203.029C203.607 428.043 204.653 426.738 206.165 425.76C207.69 424.77 209.492 424.275 211.57 424.275C214.214 424.275 216.36 425.123 218.007 426.818C219.668 428.501 220.498 430.889 220.498 433.983V453.158H212.658V435.542C212.658 433.958 212.24 432.77 211.404 431.978C210.568 431.186 209.522 430.79 208.268 430.79C206.841 430.79 205.729 431.248 204.929 432.164C204.13 433.067 203.73 434.262 203.73 435.747V453.158H196.112V435.375C196.112 433.977 195.712 432.863 194.913 432.034C194.126 431.205 193.087 430.79 191.796 430.79C190.923 430.79 190.136 431.013 189.435 431.459C188.746 431.892 188.199 432.504 187.793 433.296C187.387 434.076 187.184 434.992 187.184 436.044L186.594 453.158H179.917Z" fill="#061D25"/>
<path d="M222.62 453.158L222.111 428.574C222.066 426.418 223.802 424.646 225.959 424.646V424.646C228.115 424.646 229.851 426.418 229.806 428.574L229.297 453.158H222.62Z" fill="#061D25"/>
<path d="M238.437 463.85C237.441 463.85 236.506 463.77 235.633 463.609C234.772 463.46 234.059 463.268 233.493 463.033L235.264 457.131C236.186 457.415 237.016 457.57 237.754 457.595C238.504 457.619 239.15 457.446 239.691 457.075C240.244 456.704 240.693 456.072 241.037 455.181L241.499 453.975L231.335 424.646H239.599L245.465 445.585H245.76L251.681 424.646H260L248.988 456.24C248.459 457.774 247.74 459.111 246.83 460.249C245.932 461.4 244.794 462.285 243.417 462.903C242.04 463.535 240.38 463.85 238.437 463.85Z" fill="#061D25"/>
<path d="M249.475 366.097L252.29 366.812C254.159 367.287 255.452 368.99 255.41 370.917C255.359 373.204 253.465 375.017 251.178 374.966L247.108 374.876C246.245 374.857 245.449 375.335 245.059 376.105L231.042 403.836C229.145 407.588 225.103 409.754 220.928 409.254L187.575 405.26C183.367 404.756 179.934 401.655 179.006 397.52L173.146 371.408C171.909 365.899 167.325 361.773 161.716 361.123L147.313 359.452C144.86 359.168 143.102 356.949 143.386 354.496C143.672 352.022 145.925 350.258 148.396 350.574L167.791 353.055C174.481 353.911 179.916 358.869 181.38 365.453L186.546 388.684C187.467 392.828 190.904 395.938 195.118 396.443L215.92 398.934C219.983 399.42 223.933 397.382 225.89 393.788L238.322 370.965C240.49 366.984 245.081 364.98 249.475 366.097Z" fill="#F29F05"/>
<circle cx="225.784" cy="417.047" r="4.95559" transform="rotate(5.56392 225.784 417.047)" fill="#061D25"/>
<path d="M188.283 414.891C188.017 417.615 185.594 419.608 182.87 419.343C180.146 419.077 178.153 416.654 178.418 413.93C178.684 411.206 181.107 409.213 183.831 409.478C186.555 409.743 188.548 412.167 188.283 414.891Z" fill="#061D25"/>
<path fill-rule="evenodd" clip-rule="evenodd" d="M205.102 390.825C200.042 389.913 195.821 387.537 193.624 385.406L197.685 381.192C198.973 382.441 202.106 384.33 206.135 385.056C210.06 385.763 214.663 385.338 219.135 382.277L222.429 387.118C216.482 391.189 210.265 391.755 205.102 390.825Z" fill="#061D25"/>
</g>
<defs>
<filter id="filter0_d_115_459" x="0" y="0" width="398" height="823" filterUnits="userSpaceOnUse" color-interpolation-filters="sRGB">
<feFlood flood-opacity="0" result="BackgroundImageFix"/>
<feColorMatrix in="SourceAlpha" type="matrix" values="0 0 0 0 0 0 0 0 0 0 0 0 0 0 0 0 0 0 127 0" result="hardAlpha"/>
<feOffset dy="4"/>
<feGaussianBlur stdDeviation="2"/>
<feComposite in2="hardAlpha" operator="out"/>
<feColorMatrix type="matrix" values="0 0 0 0 0 0 0 0 0 0 0 0 0 0 0 0 0 0 0.25 0"/>
<feBlend mode="normal" in2="BackgroundImageFix" result="effect1_dropShadow_115_459"/>
<feBlend mode="normal" in="SourceGraphic" in2="effect1_dropShadow_115_459" result="shape"/>
</filter>
</defs>
</svg>
